<svg xmlns="http://www.w3.org/2000/svg" xmlns:xlink="http://www.w3.org/1999/xlink" width="30" height="56" version="1.1" viewBox="0 0 30 56"><title>kek</title><desc>Created with Sketch.</desc><defs><path id="path-1" d="M0.875,13.199 C0.875,5.909 6.751,0 14,0 C21.249,0 27.125,5.909 27.125,13.199 C27.125,20.489 21.249,26.397 14,26.397 C6.751,26.397 0.875,20.488 0.875,13.199 Z M23.375,13.199 C23.375,7.992 19.178,3.771 14,3.771 C8.822,3.771 4.625,7.992 4.625,13.199 C4.625,18.406 8.822,22.627 14,22.627 C19.178,22.627 23.375,18.405 23.375,13.199 Z"/><rect id="path-3" width="1280" height="850" x="0" y="0"/><rect id="path-5" width="38" height="37" x="0" y="0"/><rect id="path-7" width="28" height="27" x="0" y="0"/><path id="path-9" d="M23.553,4.374 L6.466,4.381 L15.011,19.418 L23.553,4.374 Z M15,27 L0,0.603 L30,0.603 L15,27 Z"/><rect id="path-11" width="1280" height="850" x="0" y="0"/></defs><g id="Themenwelt---Lektion---Desktop-HD---1440-x-1024" fill="none" fill-rule="evenodd" stroke="none" stroke-width="1" transform="translate(-97.000000, -1370.000000)"><g id="kek" transform="translate(97.000000, 1370.000000)"><g id="Clipped" transform="translate(1.000000, 0.000000)"><g id="Group"><g id="Group-Clipped"><mask id="mask-2" fill="#fff"><use xlink:href="#path-1"/></mask><g id="Group" mask="url(#mask-2)"><g id="Clipped-Clipped"><g transform="translate(-27.000000, -20.000000)"><g id="Group"><g id="Clipped-Clipped"><mask id="mask-4" fill="#fff"><use xlink:href="#path-3"/></mask><g id="Clipped" mask="url(#mask-4)"><g id="Group"><g transform="translate(22.000000, 15.000000)"><g id="Clipped-Clipped"><g><g><mask id="mask-6" fill="#fff"><use xlink:href="#path-5"/></mask><g id="Clipped" mask="url(#mask-6)"><g id="Group"><g transform="translate(5.000000, 5.000000)"><g id="Rectangle-path-Clipped"><g><g><mask id="mask-8" fill="#fff"><use xlink:href="#path-7"/></mask><rect id="Rectangle-path" width="36.25" height="36.397" x="-4.125" y="-5" fill="#51AA55" fill-rule="nonzero" mask="url(#mask-8)"/></g></g></g></g></g></g></g></g></g></g></g></g></g></g></g></g></g></g></g></g><g id="Clipped" transform="translate(0.000000, 29.000000)"><g id="Group"><g id="Group-Clipped"><mask id="mask-10" fill="#fff"><use xlink:href="#path-9"/></mask><g id="Group" mask="url(#mask-10)"><g id="Rectangle-path-Clipped"><g transform="translate(-26.000000, -49.000000)"><g id="Group"><g id="Rectangle-path-Clipped"><mask id="mask-12" fill="#fff"><use xlink:href="#path-11"/></mask><rect id="Rectangle-path" width="40" height="36.397" x="21" y="44.603" fill="#F6A808" fill-rule="nonzero" mask="url(#mask-12)"/></g></g></g></g></g></g></g></g></g></g></svg>